<svg xmlns="http://www.w3.org/2000/svg" width="184" height="48" viewBox="0 0 184 48" fill="none">
<rect width="184" height="48" rx="6" fill="url(#paint0_linear_264_4088)" fill-opacity="0.04"/>
<rect x="0.5" y="0.5" width="183" height="47" rx="5.5" stroke="#8C8C8C" stroke-opacity="0.2"/>
<path d="M61.606 20H58.134V10.06H61.606C64.518 10.06 66.52 11.754 66.52 14.862V15.198C66.52 18.278 64.532 20 61.606 20ZM59.758 11.432V18.628H61.494C63.538 18.628 64.84 17.578 64.84 15.198V14.862C64.84 12.496 63.552 11.432 61.466 11.432H59.758ZM71.4132 20.182C69.2572 20.182 67.8572 18.698 67.8572 16.5V16.29C67.8572 14.092 69.2572 12.622 71.4132 12.622C73.5832 12.622 74.9832 14.092 74.9832 16.29V16.5C74.9832 18.698 73.5832 20.182 71.4132 20.182ZM71.4132 18.936C72.7292 18.936 73.4152 18.054 73.4152 16.5V16.29C73.4152 14.736 72.7292 13.868 71.4132 13.868C70.1112 13.868 69.4252 14.736 69.4252 16.29V16.5C69.4252 18.054 70.1112 18.936 71.4132 18.936ZM79.502 20H77.878L75.708 12.79H77.276L78.774 18.334L80.286 12.79H81.798L83.324 18.348L84.85 12.79H86.39L84.192 20H82.582L81.028 14.54L79.502 20ZM89.1756 20H87.6356V12.79H89.1196L89.1756 13.938C89.5536 13.224 90.3096 12.622 91.4716 12.622C93.2216 12.622 93.9636 13.714 93.9636 15.352V20H92.4376V15.73C92.4376 14.554 92.0036 13.896 90.9536 13.896C89.8896 13.896 89.1756 14.68 89.1756 15.968V20ZM97.5155 20H95.9755V9.472H97.5155V20ZM102.763 20.182C100.607 20.182 99.2068 18.698 99.2068 16.5V16.29C99.2068 14.092 100.607 12.622 102.763 12.622C104.933 12.622 106.333 14.092 106.333 16.29V16.5C106.333 18.698 104.933 20.182 102.763 20.182ZM102.763 18.936C104.079 18.936 104.765 18.054 104.765 16.5V16.29C104.765 14.736 104.079 13.868 102.763 13.868C101.461 13.868 100.775 14.736 100.775 16.29V16.5C100.775 18.054 101.461 18.936 102.763 18.936ZM110.008 20.182C108.524 20.182 107.586 19.286 107.586 18.054C107.586 16.906 108.286 16.15 109.518 15.982L112.36 15.562V15.044C112.36 14.246 111.814 13.826 110.904 13.826C110.008 13.826 109.462 14.204 109.336 14.862H107.866C108.02 13.462 109.168 12.622 110.932 12.622C112.794 12.622 113.844 13.602 113.844 15.1V20H112.43L112.374 18.88C111.926 19.692 111.044 20.182 110.008 20.182ZM110.358 18.964C111.436 18.964 112.36 18.292 112.36 17.354V16.696L110.05 17.018C109.392 17.116 109.084 17.424 109.084 17.984C109.084 18.586 109.546 18.964 110.358 18.964ZM118.584 20.182C116.694 20.182 115.476 18.656 115.476 16.5V16.29C115.476 14.148 116.652 12.622 118.556 12.622C119.704 12.622 120.488 13.168 120.908 13.84V9.472H122.448V20H121.02L120.978 18.796C120.628 19.482 119.816 20.182 118.584 20.182ZM118.976 18.936C120.264 18.936 120.964 18.054 120.964 16.5V16.29C120.964 14.736 120.25 13.84 118.976 13.84C117.744 13.84 117.044 14.736 117.044 16.29V16.5C117.044 18.04 117.73 18.936 118.976 18.936ZM129.381 20.182C127.897 20.182 126.959 19.286 126.959 18.054C126.959 16.906 127.659 16.15 128.891 15.982L131.733 15.562V15.044C131.733 14.246 131.187 13.826 130.277 13.826C129.381 13.826 128.835 14.204 128.709 14.862H127.239C127.393 13.462 128.541 12.622 130.305 12.622C132.167 12.622 133.217 13.602 133.217 15.1V20H131.803L131.747 18.88C131.299 19.692 130.417 20.182 129.381 20.182ZM129.731 18.964C130.809 18.964 131.733 18.292 131.733 17.354V16.696L129.423 17.018C128.765 17.116 128.457 17.424 128.457 17.984C128.457 18.586 128.919 18.964 129.731 18.964ZM136.781 22.38H135.227V12.79H136.669L136.711 13.98C137.061 13.294 137.901 12.622 139.133 12.622C141.023 12.622 142.213 14.134 142.213 16.29V16.5C142.213 18.656 140.995 20.182 139.091 20.182C137.971 20.182 137.173 19.594 136.781 18.908V22.38ZM138.713 18.936C139.945 18.936 140.645 18.054 140.645 16.5V16.29C140.645 14.736 139.945 13.84 138.713 13.84C137.425 13.84 136.725 14.736 136.725 16.29V16.5C136.725 18.054 137.425 18.936 138.713 18.936ZM145.463 22.38H143.909V12.79H145.351L145.393 13.98C145.743 13.294 146.583 12.622 147.815 12.622C149.705 12.622 150.895 14.134 150.895 16.29V16.5C150.895 18.656 149.677 20.182 147.773 20.182C146.653 20.182 145.855 19.594 145.463 18.908V22.38ZM147.395 18.936C148.627 18.936 149.327 18.054 149.327 16.5V16.29C149.327 14.736 148.627 13.84 147.395 13.84C146.107 13.84 145.407 14.736 145.407 16.29V16.5C145.407 18.054 146.107 18.936 147.395 18.936ZM158.64 20.182C156.484 20.182 155.084 18.698 155.084 16.5V16.29C155.084 14.092 156.484 12.622 158.64 12.622C160.81 12.622 162.21 14.092 162.21 16.29V16.5C162.21 18.698 160.81 20.182 158.64 20.182ZM158.64 18.936C159.956 18.936 160.642 18.054 160.642 16.5V16.29C160.642 14.736 159.956 13.868 158.64 13.868C157.338 13.868 156.652 14.736 156.652 16.29V16.5C156.652 18.054 157.338 18.936 158.64 18.936ZM165.437 20H163.897V12.79H165.381L165.437 13.938C165.815 13.224 166.571 12.622 167.733 12.622C169.483 12.622 170.225 13.714 170.225 15.352V20H168.699V15.73C168.699 14.554 168.265 13.896 167.215 13.896C166.151 13.896 165.437 14.68 165.437 15.968V20ZM66.59 37H64.882L63.972 34.536H59.73L58.82 37H57.168L60.99 27.06H62.768L66.59 37ZM61.858 28.782L60.22 33.22H63.482L61.858 28.782ZM69.3517 39.38H67.7977V29.79H69.2397L69.2817 30.98C69.6317 30.294 70.4717 29.622 71.7037 29.622C73.5937 29.622 74.7837 31.134 74.7837 33.29V33.5C74.7837 35.656 73.5657 37.182 71.6617 37.182C70.5417 37.182 69.7437 36.594 69.3517 35.908V39.38ZM71.2837 35.936C72.5157 35.936 73.2157 35.054 73.2157 33.5V33.29C73.2157 31.736 72.5157 30.84 71.2837 30.84C69.9957 30.84 69.2957 31.736 69.2957 33.29V33.5C69.2957 35.054 69.9957 35.936 71.2837 35.936ZM78.0334 39.38H76.4794V29.79H77.9214L77.9634 30.98C78.3134 30.294 79.1534 29.622 80.3854 29.622C82.2754 29.622 83.4654 31.134 83.4654 33.29V33.5C83.4654 35.656 82.2474 37.182 80.3434 37.182C79.2234 37.182 78.4254 36.594 78.0334 35.908V39.38ZM79.9654 35.936C81.1974 35.936 81.8974 35.054 81.8974 33.5V33.29C81.8974 31.736 81.1974 30.84 79.9654 30.84C78.6774 30.84 77.9774 31.736 77.9774 33.29V33.5C77.9774 35.054 78.6774 35.936 79.9654 35.936ZM90.7201 37.182C88.8581 37.182 87.6961 36.3 87.5701 34.76H89.0401C89.1801 35.614 89.7961 36.02 90.7341 36.02C91.6021 36.02 92.1901 35.67 92.1901 35.026C92.1901 34.452 91.7841 34.172 90.4261 33.92C88.6621 33.626 87.8081 33.066 87.8081 31.778C87.8081 30.49 88.9701 29.622 90.6361 29.622C92.3581 29.622 93.4361 30.448 93.5761 31.876H92.1061C92.0081 31.148 91.4341 30.756 90.6221 30.756C89.8101 30.756 89.2921 31.106 89.2921 31.694C89.2921 32.254 89.7121 32.52 91.0281 32.73C92.8341 33.024 93.7301 33.626 93.7301 34.886C93.7301 36.258 92.5261 37.182 90.7201 37.182ZM98.2182 37.182C96.6362 37.182 95.8522 36.454 95.8522 35.054V30.952H94.4522V29.79H95.8522V27.536H97.3922V29.79H99.3522V30.952H97.3922V34.886C97.3922 35.6 97.6582 35.922 98.5122 35.922C98.8202 35.922 99.1842 35.852 99.3942 35.782V37.014C99.0722 37.098 98.5822 37.182 98.2182 37.182ZM104.007 37.182C101.851 37.182 100.451 35.698 100.451 33.5V33.29C100.451 31.092 101.851 29.622 104.007 29.622C106.177 29.622 107.577 31.092 107.577 33.29V33.5C107.577 35.698 106.177 37.182 104.007 37.182ZM104.007 35.936C105.323 35.936 106.009 35.054 106.009 33.5V33.29C106.009 31.736 105.323 30.868 104.007 30.868C102.705 30.868 102.019 31.736 102.019 33.29V33.5C102.019 35.054 102.705 35.936 104.007 35.936ZM110.805 37H109.265V29.79H110.749L110.791 31.19C111.183 30.266 111.939 29.65 112.975 29.65C113.087 29.65 113.241 29.664 113.367 29.692V31.19C113.227 31.176 113.059 31.162 112.891 31.162C111.589 31.162 110.805 31.904 110.805 33.332V37ZM117.651 37.182C115.425 37.182 114.109 35.684 114.109 33.5V33.29C114.109 31.106 115.453 29.622 117.637 29.622C119.989 29.622 121.137 31.246 121.011 33.724H115.607C115.677 35.18 116.405 35.95 117.651 35.95C118.645 35.95 119.219 35.502 119.443 34.816H120.969C120.619 36.272 119.415 37.182 117.651 37.182ZM115.649 32.632H119.457C119.359 31.512 118.743 30.826 117.637 30.826C116.489 30.826 115.817 31.456 115.649 32.632Z" fill="black"/>
<rect x="11" y="7" width="34.0499" height="34.0499" rx="17.025" fill="white"/>
<path d="M33.4483 24.5784C33.4398 22.984 34.1514 21.7806 35.592 20.8943C34.786 19.7256 33.5684 19.0826 31.9606 18.9566C30.4386 18.835 28.7751 19.8559 28.1663 19.8559C27.5232 19.8559 26.0484 19.0001 24.8908 19.0001C22.4984 19.0392 19.9561 20.9334 19.9561 24.787C19.9561 25.9253 20.1618 27.1012 20.5734 28.3148C21.1222 29.9092 23.103 33.8193 25.1695 33.7541C26.2499 33.7281 27.013 32.9764 28.4193 32.9764C29.7826 32.9764 30.4901 33.7541 31.6948 33.7541C33.7784 33.7237 35.5706 30.1699 36.0936 28.5711C33.2983 27.2373 33.4483 24.661 33.4483 24.5784ZM31.0217 17.4447C32.1921 16.0371 32.0849 14.7554 32.0507 14.2949C31.0174 14.3557 29.8212 15.0074 29.1395 15.8112C28.3893 16.6714 27.9477 17.7358 28.042 18.9349C29.161 19.0218 30.1814 18.4396 31.0217 17.4447Z" fill="black"/>
<defs>
<linearGradient id="paint0_linear_264_4088" x1="92" y1="-5.5" x2="92" y2="48" gradientUnits="userSpaceOnUse">
<stop stop-color="#B3B3B3"/>
<stop offset="1" stop-color="#4D4D4D"/>
</linearGradient>
</defs>
</svg>