<svg xmlns="http://www.w3.org/2000/svg" width="184" height="48" viewBox="0 0 184 48" fill="none">
<rect width="184" height="48" rx="6" fill="url(#paint0_linear_264_4093)" fill-opacity="0.04"/>
<rect x="0.5" y="0.5" width="183" height="47" rx="5.5" stroke="#8C8C8C" stroke-opacity="0.2"/>
<path d="M59.6558 20H56.1838V10.06H59.6558C62.5678 10.06 64.5698 11.754 64.5698 14.862V15.198C64.5698 18.278 62.5818 20 59.6558 20ZM57.8078 11.432V18.628H59.5438C61.5878 18.628 62.8898 17.578 62.8898 15.198V14.862C62.8898 12.496 61.6018 11.432 59.5158 11.432H57.8078ZM69.463 20.182C67.307 20.182 65.907 18.698 65.907 16.5V16.29C65.907 14.092 67.307 12.622 69.463 12.622C71.633 12.622 73.033 14.092 73.033 16.29V16.5C73.033 18.698 71.633 20.182 69.463 20.182ZM69.463 18.936C70.779 18.936 71.465 18.054 71.465 16.5V16.29C71.465 14.736 70.779 13.868 69.463 13.868C68.161 13.868 67.475 14.736 67.475 16.29V16.5C67.475 18.054 68.161 18.936 69.463 18.936ZM77.5519 20H75.9279L73.7579 12.79H75.3259L76.8239 18.334L78.3359 12.79H79.8479L81.3739 18.348L82.8999 12.79H84.4399L82.2419 20H80.6319L79.0779 14.54L77.5519 20ZM87.2254 20H85.6854V12.79H87.1694L87.2254 13.938C87.6034 13.224 88.3594 12.622 89.5214 12.622C91.2714 12.622 92.0134 13.714 92.0134 15.352V20H90.4874V15.73C90.4874 14.554 90.0534 13.896 89.0034 13.896C87.9394 13.896 87.2254 14.68 87.2254 15.968V20ZM95.5653 20H94.0253V9.472H95.5653V20ZM100.813 20.182C98.6566 20.182 97.2566 18.698 97.2566 16.5V16.29C97.2566 14.092 98.6566 12.622 100.813 12.622C102.983 12.622 104.383 14.092 104.383 16.29V16.5C104.383 18.698 102.983 20.182 100.813 20.182ZM100.813 18.936C102.129 18.936 102.815 18.054 102.815 16.5V16.29C102.815 14.736 102.129 13.868 100.813 13.868C99.5106 13.868 98.8246 14.736 98.8246 16.29V16.5C98.8246 18.054 99.5106 18.936 100.813 18.936ZM108.058 20.182C106.574 20.182 105.636 19.286 105.636 18.054C105.636 16.906 106.336 16.15 107.568 15.982L110.41 15.562V15.044C110.41 14.246 109.864 13.826 108.954 13.826C108.058 13.826 107.512 14.204 107.386 14.862H105.916C106.07 13.462 107.218 12.622 108.982 12.622C110.844 12.622 111.894 13.602 111.894 15.1V20H110.48L110.424 18.88C109.976 19.692 109.094 20.182 108.058 20.182ZM108.408 18.964C109.486 18.964 110.41 18.292 110.41 17.354V16.696L108.1 17.018C107.442 17.116 107.134 17.424 107.134 17.984C107.134 18.586 107.596 18.964 108.408 18.964ZM116.634 20.182C114.744 20.182 113.526 18.656 113.526 16.5V16.29C113.526 14.148 114.702 12.622 116.606 12.622C117.754 12.622 118.538 13.168 118.958 13.84V9.472H120.498V20H119.07L119.028 18.796C118.678 19.482 117.866 20.182 116.634 20.182ZM117.026 18.936C118.314 18.936 119.014 18.054 119.014 16.5V16.29C119.014 14.736 118.3 13.84 117.026 13.84C115.794 13.84 115.094 14.736 115.094 16.29V16.5C115.094 18.04 115.78 18.936 117.026 18.936ZM127.431 20.182C125.947 20.182 125.009 19.286 125.009 18.054C125.009 16.906 125.709 16.15 126.941 15.982L129.783 15.562V15.044C129.783 14.246 129.237 13.826 128.327 13.826C127.431 13.826 126.885 14.204 126.759 14.862H125.289C125.443 13.462 126.591 12.622 128.355 12.622C130.217 12.622 131.267 13.602 131.267 15.1V20H129.853L129.797 18.88C129.349 19.692 128.467 20.182 127.431 20.182ZM127.781 18.964C128.859 18.964 129.783 18.292 129.783 17.354V16.696L127.473 17.018C126.815 17.116 126.507 17.424 126.507 17.984C126.507 18.586 126.969 18.964 127.781 18.964ZM134.831 22.38H133.277V12.79H134.719L134.761 13.98C135.111 13.294 135.951 12.622 137.183 12.622C139.073 12.622 140.263 14.134 140.263 16.29V16.5C140.263 18.656 139.045 20.182 137.141 20.182C136.021 20.182 135.223 19.594 134.831 18.908V22.38ZM136.763 18.936C137.995 18.936 138.695 18.054 138.695 16.5V16.29C138.695 14.736 137.995 13.84 136.763 13.84C135.475 13.84 134.775 14.736 134.775 16.29V16.5C134.775 18.054 135.475 18.936 136.763 18.936ZM143.513 22.38H141.959V12.79H143.401L143.443 13.98C143.793 13.294 144.633 12.622 145.865 12.622C147.755 12.622 148.945 14.134 148.945 16.29V16.5C148.945 18.656 147.727 20.182 145.823 20.182C144.703 20.182 143.905 19.594 143.513 18.908V22.38ZM145.445 18.936C146.677 18.936 147.377 18.054 147.377 16.5V16.29C147.377 14.736 146.677 13.84 145.445 13.84C144.157 13.84 143.457 14.736 143.457 16.29V16.5C143.457 18.054 144.157 18.936 145.445 18.936ZM156.69 20.182C154.534 20.182 153.134 18.698 153.134 16.5V16.29C153.134 14.092 154.534 12.622 156.69 12.622C158.86 12.622 160.26 14.092 160.26 16.29V16.5C160.26 18.698 158.86 20.182 156.69 20.182ZM156.69 18.936C158.006 18.936 158.692 18.054 158.692 16.5V16.29C158.692 14.736 158.006 13.868 156.69 13.868C155.388 13.868 154.702 14.736 154.702 16.29V16.5C154.702 18.054 155.388 18.936 156.69 18.936ZM163.487 20H161.947V12.79H163.431L163.487 13.938C163.865 13.224 164.621 12.622 165.783 12.622C167.533 12.622 168.275 13.714 168.275 15.352V20H166.749V15.73C166.749 14.554 166.315 13.896 165.265 13.896C164.201 13.896 163.487 14.68 163.487 15.968V20ZM57.8078 37H56.1838V27.06H60.2298C62.2318 27.06 63.6318 28.096 63.6318 30.028V30.252C63.6318 32.184 62.2318 33.22 60.2298 33.22H57.8078V37ZM57.8078 28.432V31.848H60.0898C61.2098 31.848 61.9518 31.344 61.9518 30.252V30.028C61.9518 28.936 61.2098 28.432 60.0898 28.432H57.8078ZM66.6903 37H65.1503V26.472H66.6903V37ZM70.7476 37.182C69.2636 37.182 68.3256 36.286 68.3256 35.054C68.3256 33.906 69.0256 33.15 70.2576 32.982L73.0996 32.562V32.044C73.0996 31.246 72.5536 30.826 71.6436 30.826C70.7476 30.826 70.2016 31.204 70.0756 31.862H68.6056C68.7596 30.462 69.9076 29.622 71.6716 29.622C73.5336 29.622 74.5836 30.602 74.5836 32.1V37H73.1696L73.1136 35.88C72.6656 36.692 71.7836 37.182 70.7476 37.182ZM71.0976 35.964C72.1756 35.964 73.0996 35.292 73.0996 34.354V33.696L70.7896 34.018C70.1316 34.116 69.8236 34.424 69.8236 34.984C69.8236 35.586 70.2856 35.964 71.0976 35.964ZM79.0749 39.38H77.4789L78.4169 36.958L75.6309 29.79H77.2829L79.2289 35.264L81.1049 29.79H82.6869L79.0749 39.38ZM89.4945 37.182C87.6325 37.182 86.4705 36.3 86.3445 34.76H87.8145C87.9545 35.614 88.5705 36.02 89.5085 36.02C90.3765 36.02 90.9645 35.67 90.9645 35.026C90.9645 34.452 90.5585 34.172 89.2005 33.92C87.4365 33.626 86.5825 33.066 86.5825 31.778C86.5825 30.49 87.7445 29.622 89.4105 29.622C91.1325 29.622 92.2105 30.448 92.3505 31.876H90.8805C90.7825 31.148 90.2085 30.756 89.3965 30.756C88.5845 30.756 88.0665 31.106 88.0665 31.694C88.0665 32.254 88.4865 32.52 89.8025 32.73C91.6085 33.024 92.5045 33.626 92.5045 34.886C92.5045 36.258 91.3005 37.182 89.4945 37.182ZM96.9926 37.182C95.4106 37.182 94.6266 36.454 94.6266 35.054V30.952H93.2266V29.79H94.6266V27.536H96.1666V29.79H98.1266V30.952H96.1666V34.886C96.1666 35.6 96.4326 35.922 97.2866 35.922C97.5946 35.922 97.9586 35.852 98.1686 35.782V37.014C97.8466 37.098 97.3566 37.182 96.9926 37.182ZM102.781 37.182C100.625 37.182 99.2254 35.698 99.2254 33.5V33.29C99.2254 31.092 100.625 29.622 102.781 29.622C104.951 29.622 106.351 31.092 106.351 33.29V33.5C106.351 35.698 104.951 37.182 102.781 37.182ZM102.781 35.936C104.097 35.936 104.783 35.054 104.783 33.5V33.29C104.783 31.736 104.097 30.868 102.781 30.868C101.479 30.868 100.793 31.736 100.793 33.29V33.5C100.793 35.054 101.479 35.936 102.781 35.936ZM109.579 37H108.039V29.79H109.523L109.565 31.19C109.957 30.266 110.713 29.65 111.749 29.65C111.861 29.65 112.015 29.664 112.141 29.692V31.19C112.001 31.176 111.833 31.162 111.665 31.162C110.363 31.162 109.579 31.904 109.579 33.332V37ZM116.426 37.182C114.2 37.182 112.884 35.684 112.884 33.5V33.29C112.884 31.106 114.228 29.622 116.412 29.622C118.764 29.622 119.912 31.246 119.786 33.724H114.382C114.452 35.18 115.18 35.95 116.426 35.95C117.42 35.95 117.994 35.502 118.218 34.816H119.744C119.394 36.272 118.19 37.182 116.426 37.182ZM114.424 32.632H118.232C118.134 31.512 117.518 30.826 116.412 30.826C115.264 30.826 114.592 31.456 114.424 32.632Z" fill="black"/>
<rect x="9" y="7" width="34.0499" height="34.0499" rx="17.025" fill="white"/>
<path d="M25.4568 23.5885L17.515 32.1367C17.5153 32.1385 17.5159 32.14 17.5161 32.1418C17.7597 33.07 18.5958 33.7535 19.588 33.7535C19.9847 33.7535 20.3571 33.6447 20.6765 33.4538L20.7018 33.4388L29.6418 28.2075L25.4568 23.5885Z" fill="#EB3131"/>
<path d="M33.4918 22.1337L33.4842 22.1284L29.6245 19.8594L25.2761 23.7832L29.6396 28.2075L33.4789 25.9611C34.152 25.5926 34.609 24.873 34.609 24.0432C34.609 23.2194 34.1582 22.5034 33.4918 22.1337Z" fill="#F6B60B"/>
<path d="M17.5138 15.9127C17.466 16.0912 17.4409 16.2782 17.4409 16.4724V31.5779C17.4409 31.7717 17.4657 31.9593 17.5141 32.1372L25.73 23.8075L17.5138 15.9127Z" fill="#5778C5"/>
<path d="M25.5153 24.025L29.6262 19.8575L20.6963 14.6073C20.3717 14.4102 19.9929 14.2964 19.5875 14.2964C18.5953 14.2964 17.758 14.9811 17.5144 15.9104C17.5141 15.9113 17.5138 15.9119 17.5138 15.9127L25.5153 24.025Z" fill="#3BAD49"/>
<defs>
<linearGradient id="paint0_linear_264_4093" x1="92" y1="-5.5" x2="92" y2="48" gradientUnits="userSpaceOnUse">
<stop stop-color="#B3B3B3"/>
<stop offset="1" stop-color="#4D4D4D"/>
</linearGradient>
</defs>
</svg>