<svg xmlns="http://www.w3.org/2000/svg" width="18" height="14" viewBox="0 0 18 14" fill="none">
<path d="M11.25 0.583008C14.0783 0.583008 15.4924 0.583397 16.3711 1.46191C17.2497 2.34056 17.25 3.7548 17.25 6.58301V7.41699C17.25 10.2452 17.2497 11.6594 16.3711 12.5381C15.4924 13.4166 14.0783 13.417 11.25 13.417H6.75C3.92175 13.417 2.5076 13.4166 1.62891 12.5381C0.750261 11.6594 0.75 10.2452 0.75 7.41699V6.58301C0.75 3.7548 0.75026 2.34056 1.62891 1.46191C2.5076 0.583397 3.92175 0.583008 6.75 0.583008H11.25ZM15.332 3.69531C15.0448 3.26454 14.4812 3.1282 14.0332 3.36523L13.9453 3.41797L9 6.71484L4.05469 3.41797L3.9668 3.36523C3.51884 3.1282 2.95515 3.26454 2.66797 3.69531C2.38068 4.12624 2.47184 4.69921 2.86328 5.02148L2.94531 5.08203L7.89062 8.37891L8.01855 8.45801C8.67072 8.82543 9.47954 8.79879 10.1094 8.37891L15.0547 5.08203L15.1367 5.02148C15.5282 4.69921 15.6193 4.12624 15.332 3.69531Z" fill="#4E4E4E"/>
</svg>