<svg xmlns="http://www.w3.org/2000/svg" width="19" height="22" viewBox="0 0 19 22" fill="none">
<g clip-path="url(#clip0_510_3203)">
<path d="M19 9.01914C17.1322 9.02319 15.3104 8.43248 13.792 7.33047V15.0133C13.7915 16.4362 13.3623 17.825 12.5617 18.9941C11.7611 20.1631 10.6272 21.0566 9.31182 21.5551C7.9964 22.0536 6.56212 22.1332 5.2008 21.7834C3.83948 21.4337 2.61602 20.6711 1.69405 19.5978C0.772079 18.5244 0.195553 17.1914 0.0415772 15.7771C-0.112399 14.3628 0.163516 12.9346 0.832421 11.6834C1.50133 10.4323 2.53133 9.41791 3.78468 8.77593C5.03802 8.13395 6.45496 7.895 7.84599 8.09102V11.9539C7.20994 11.751 6.52689 11.757 5.89437 11.9709C5.26185 12.1847 4.7122 12.5956 4.3239 13.1449C3.9356 13.6941 3.72851 14.3536 3.7322 15.0292C3.73588 15.7048 3.95016 16.3619 4.34442 16.9067C4.73869 17.4516 5.29279 17.8563 5.92761 18.0631C6.56243 18.2699 7.2455 18.2682 7.87929 18.0582C8.51309 17.8482 9.0652 17.4407 9.4568 16.8939C9.84839 16.3471 10.0594 15.6889 10.0598 15.0133V0H13.792C13.7899 0.319801 13.8168 0.639119 13.8726 0.953906C14.0023 1.65559 14.272 2.32308 14.665 2.9156C15.0581 3.50811 15.5662 4.01321 16.1585 4.4C17.0015 4.96411 17.9897 5.26447 19 5.26367V9.01914Z" fill="black"/>
</g>
<defs>
<clipPath id="clip0_510_3203">
<rect width="19" height="22" fill="white"/>
</clipPath>
</defs>
</svg>