<svg xmlns="http://www.w3.org/2000/svg" width="19" height="22" viewBox="0 0 19 22" fill="none">
<g clip-path="url(#clip0_264_4082)">
<path d="M9.504 6.05879C6.80668 6.05879 4.63101 8.26309 4.63101 10.9959C4.63101 13.7287 6.80668 15.933 9.504 15.933C12.2013 15.933 14.377 13.7287 14.377 10.9959C14.377 8.26309 12.2013 6.05879 9.504 6.05879ZM9.504 14.2057C7.76092 14.2057 6.33592 12.7662 6.33592 10.9959C6.33592 9.22559 7.75668 7.78613 9.504 7.78613C11.2513 7.78613 12.6721 9.22559 12.6721 10.9959C12.6721 12.7662 11.2471 14.2057 9.504 14.2057ZM15.7129 5.85684C15.7129 6.49707 15.204 7.0084 14.5763 7.0084C13.9444 7.0084 13.4397 6.49277 13.4397 5.85684C13.4397 5.2209 13.9486 4.70527 14.5763 4.70527C15.204 4.70527 15.7129 5.2209 15.7129 5.85684ZM18.9404 7.02559C18.8683 5.48301 18.5205 4.1166 17.4051 2.99082C16.294 1.86504 14.9453 1.5127 13.4228 1.43535C11.8536 1.34512 7.15021 1.34512 5.58101 1.43535C4.06271 1.5084 2.71405 1.86074 1.59865 2.98652C0.483245 4.1123 0.139718 5.47871 0.0633789 7.02129C-0.0256836 8.61113 -0.0256836 13.3764 0.0633789 14.9662C0.135477 16.5088 0.483245 17.8752 1.59865 19.001C2.71405 20.1268 4.05847 20.4791 5.58101 20.5564C7.15021 20.6467 11.8536 20.6467 13.4228 20.5564C14.9453 20.4834 16.294 20.1311 17.4051 19.001C18.5163 17.8752 18.864 16.5088 18.9404 14.9662C19.0295 13.3764 19.0295 8.61543 18.9404 7.02559ZM16.9132 16.6721C16.5824 17.5143 15.942 18.1631 15.1065 18.5025C13.8553 19.0053 10.8866 18.8893 9.504 18.8893C8.12142 18.8893 5.14842 19.001 3.90155 18.5025C3.0703 18.1674 2.4299 17.5186 2.09485 16.6721C1.59865 15.4045 1.71316 12.3967 1.71316 10.9959C1.71316 9.59512 1.60289 6.58301 2.09485 5.31973C2.42566 4.47754 3.06606 3.82871 3.90155 3.48926C5.15266 2.98652 8.12142 3.10254 9.504 3.10254C10.8866 3.10254 13.8596 2.99082 15.1065 3.48926C15.9377 3.82441 16.5781 4.47324 16.9132 5.31973C17.4094 6.5873 17.2949 9.59512 17.2949 10.9959C17.2949 12.3967 17.4094 15.4088 16.9132 16.6721Z" fill="black"/>
</g>
<defs>
<clipPath id="clip0_264_4082">
<rect width="19" height="22" fill="white"/>
</clipPath>
</defs>
</svg>