<svg xmlns="http://www.w3.org/2000/svg" width="22" height="22" viewBox="0 0 22 22" fill="none">
<path d="M18.8571 0H3.14286C2.30932 0 1.50992 0.331122 0.920522 0.920522C0.331122 1.50992 0 2.30932 0 3.14286L0 18.8571C0 19.6907 0.331122 20.4901 0.920522 21.0795C1.50992 21.6689 2.30932 22 3.14286 22H18.8571C19.6907 22 20.4901 21.6689 21.0795 21.0795C21.6689 20.4901 22 19.6907 22 18.8571V3.14286C22 2.30932 21.6689 1.50992 21.0795 0.920522C20.4901 0.331122 19.6907 0 18.8571 0ZM18.6656 15.6799L18.6607 15.6848C18.5385 15.8198 18.3939 15.9327 18.2335 16.0188C17.9141 16.194 17.5743 16.3293 17.2219 16.4214C17.1535 16.4398 17.0887 16.4697 17.0304 16.5098C16.9223 16.6031 16.9272 16.7357 16.8143 16.9321C16.7316 17.0781 16.6175 17.2039 16.4804 17.3004C16.1513 17.5263 15.783 17.5411 15.3902 17.5558C15.0366 17.5705 14.6339 17.5853 14.1772 17.7375C13.9906 17.7964 13.7942 17.9192 13.5683 18.0567C13.0134 18.3955 12.2571 18.8621 11 18.8621C9.74286 18.8621 8.99152 18.4004 8.44152 18.0616C8.21071 17.9192 8.01429 17.7964 7.82768 17.7375C7.37098 17.5853 6.9683 17.5705 6.61473 17.5558C6.22187 17.5411 5.85357 17.5263 5.52455 17.3004C5.40854 17.2198 5.30861 17.1182 5.22991 17.0009C5.07277 16.775 5.0875 16.6179 4.96964 16.5147C4.90796 16.4742 4.8399 16.4443 4.7683 16.4263C4.42109 16.3347 4.08633 16.2012 3.77143 16.0286C3.61999 15.9478 3.4824 15.8433 3.36384 15.7192C3.03973 15.3853 2.95625 14.9924 3.08393 14.6487C3.25089 14.192 3.65357 14.0545 4.03661 13.8482C4.76339 13.4554 5.32812 12.9594 5.72589 12.3799C5.83944 12.2155 5.93804 12.0413 6.02054 11.8594C6.05982 11.7513 6.05982 11.6973 6.03036 11.6433C6.00241 11.6 5.96558 11.5632 5.92232 11.5353C5.79955 11.4518 5.67187 11.3683 5.58348 11.3143C5.42143 11.2112 5.29375 11.1277 5.21518 11.0687C4.9058 10.8527 4.68973 10.6268 4.55714 10.3714C4.46312 10.1945 4.40831 9.99944 4.39644 9.79946C4.38458 9.59947 4.41594 9.39928 4.48839 9.2125C4.68973 8.67723 5.20045 8.3433 5.81429 8.3433C5.94299 8.34283 6.07139 8.356 6.19732 8.38259C6.2317 8.39241 6.26607 8.39732 6.29554 8.40714C6.29062 8.04375 6.30045 7.65089 6.32991 7.27277C6.44777 5.93214 6.91429 5.22991 7.40536 4.67009C7.71928 4.31856 8.08933 4.02152 8.50045 3.79107C9.24687 3.35893 10.0817 3.14286 11 3.14286C11.9183 3.14286 12.758 3.35893 13.4996 3.78125C13.9087 4.01245 14.277 4.30942 14.5897 4.66027C15.0808 5.22009 15.5473 5.92232 15.6652 7.26295C15.6955 7.64026 15.707 8.01886 15.6996 8.39732C15.7339 8.3875 15.7683 8.38259 15.8027 8.37277C15.9286 8.34618 16.057 8.33301 16.1857 8.33348C16.7996 8.33348 17.3054 8.66741 17.5116 9.20268C17.5841 9.38946 17.6154 9.58965 17.6036 9.78964C17.5917 9.98962 17.5369 10.1847 17.4429 10.3616C17.3103 10.617 17.0942 10.8478 16.7848 11.0589C16.7013 11.1179 16.5737 11.2013 16.4165 11.3045C16.3281 11.3634 16.1955 11.4469 16.0629 11.5353C16.0238 11.5609 15.9903 11.5943 15.9647 11.6335C15.9402 11.6826 15.9402 11.7415 15.9746 11.8397C16.0583 12.0252 16.1585 12.2027 16.2741 12.3701C16.6817 12.9643 17.2661 13.4652 18.0174 13.8629C18.0911 13.9022 18.1647 13.9366 18.2335 13.9759C18.2679 13.9906 18.3121 14.0152 18.3562 14.0397C18.5969 14.1723 18.808 14.3344 18.921 14.6388C19.0437 14.9728 18.9701 15.3558 18.6656 15.6799ZM17.8455 14.7714C15.3754 13.5781 14.9826 11.7317 14.9629 11.5942C14.9433 11.4272 14.9187 11.2996 15.1004 11.1277C15.2772 10.9656 16.058 10.4795 16.279 10.3272C16.6375 10.0768 16.7946 9.82634 16.6817 9.51696C16.5982 9.3058 16.4018 9.22232 16.1906 9.22232C16.1246 9.22171 16.0588 9.2283 15.9942 9.24196C15.6013 9.32545 15.2183 9.52679 14.9924 9.5808C14.9651 9.58743 14.937 9.59073 14.9089 9.59062C14.7911 9.59062 14.7469 9.53661 14.7567 9.3942C14.7862 8.96205 14.8451 8.12232 14.7763 7.33661C14.683 6.25625 14.3344 5.72098 13.9219 5.24464C13.7205 5.01875 12.7875 4.0317 11 4.0317C9.2125 4.0317 8.27455 5.02857 8.07812 5.25446C7.66562 5.7308 7.31696 6.26607 7.22366 7.34643C7.15491 8.13214 7.21875 8.97188 7.2433 9.40402C7.25312 9.54152 7.20893 9.60045 7.09107 9.60045C7.06295 9.60055 7.03492 9.59725 7.00759 9.59062C6.78661 9.53661 6.40357 9.34018 6.01071 9.25179C5.94615 9.23812 5.88028 9.23154 5.81429 9.23214C5.60313 9.23214 5.4067 9.31071 5.32321 9.52679C5.20536 9.83616 5.3625 10.0866 5.72589 10.3371C5.94196 10.4893 6.72768 10.9754 6.90446 11.1375C7.08616 11.3045 7.06161 11.4371 7.04196 11.604C7.02232 11.7415 6.62946 13.5879 4.15937 14.7812C4.01696 14.85 3.76652 15.0022 4.20357 15.2379C4.88616 15.6112 5.33795 15.5719 5.69152 15.7978C5.99107 15.9893 5.81429 16.4067 6.03036 16.554C6.30045 16.7406 7.09107 16.5393 8.10759 16.8781C8.96205 17.158 9.4875 17.9585 11.0049 17.9585C12.5223 17.9585 13.0576 17.158 13.8973 16.8781C14.9187 16.5393 15.7094 16.7406 15.9746 16.554C16.1906 16.4018 16.0138 15.9893 16.3134 15.7978C16.667 15.5719 17.1187 15.6112 17.8013 15.233C18.2384 14.9973 17.9879 14.8451 17.8455 14.7714Z" fill="black"/>
</svg>