<svg xmlns="http://www.w3.org/2000/svg" width="19" height="22" viewBox="0 0 19 22" fill="none">
<g clip-path="url(#clip0_264_4086)">
<path d="M4.25379 19.25H0.313839V6.39805H4.25379V19.25ZM2.2817 4.64492C1.0221 4.64492 0 3.58789 0 2.31172C0 1.69861 0.240392 1.11062 0.668293 0.677087C1.09619 0.243555 1.67655 0 2.2817 0C2.88684 0 3.4672 0.243555 3.8951 0.677087C4.323 1.11062 4.56339 1.69861 4.56339 2.31172C4.56339 3.58789 3.54129 4.64492 2.2817 4.64492ZM18.9958 19.25H15.0643V12.9937C15.0643 11.5027 15.0346 9.59062 13.0158 9.59062C10.9674 9.59062 10.6536 11.2105 10.6536 12.8863V19.25H6.71786V6.39805H10.4967V8.15117H10.5518C11.0777 7.14141 12.3627 6.07578 14.2797 6.07578C18.2663 6.07578 19 8.73555 19 12.1902V19.25H18.9958Z" fill="black"/>
</g>
<defs>
<clipPath id="clip0_264_4086">
<rect width="19" height="22" fill="white"/>
</clipPath>
</defs>
</svg>