<svg xmlns="http://www.w3.org/2000/svg" width="20" height="22" viewBox="0 0 20 22" fill="none">
<path d="M10 0.333008C15.1547 0.333008 19.333 4.51233 19.333 9.66699C19.3328 16.5085 12.1913 20.5625 10.4023 21.4707C10.1484 21.5997 9.85165 21.5997 9.59766 21.4707C7.80874 20.5625 0.667219 16.5085 0.666992 9.66699C0.666992 4.51233 4.84534 0.333008 10 0.333008ZM10 5.66699C7.79086 5.66699 6 7.45785 6 9.66699C6.00018 11.876 7.79097 13.667 10 13.667C12.209 13.667 13.9998 11.876 14 9.66699C14 7.45785 12.2091 5.66699 10 5.66699Z" fill="white"/>
</svg>